<?xml version="1.0" standalone="no"?>
<!DOCTYPE svg PUBLIC "-//W3C//DTD SVG 20010904//EN"
 "http://www.w3.org/TR/2001/REC-SVG-20010904/DTD/svg10.dtd">
<svg version="1.0" xmlns="http://www.w3.org/2000/svg"
 width="920.000000pt" height="1168.000000pt" viewBox="0 0 920.000000 1168.000000"
 preserveAspectRatio="xMidYMid meet">

<g transform="translate(0.000000,1168.000000) scale(0.100000,-0.100000)"
fill="#000000" stroke="none">
<path d="M4423 11556 c-217 -42 -380 -129 -538 -291 -199 -202 -295 -455 -282
-740 14 -302 152 -568 390 -748 116 -88 178 -117 256 -118 60 0 174 -15 143
-18 -10 -1 -13 -16 -10 -61 3 -52 1 -60 -17 -64 -28 -8 -190 -7 -209 0 -20 8
-23 123 -3 126 6 0 -10 4 -38 7 -27 4 -53 5 -57 3 -5 -2 -8 -34 -8 -73 l0 -69
-69 0 c-112 0 -172 -54 -179 -163 -6 -101 41 -173 126 -192 l32 -7 0 -109 0
-109 48 0 c27 0 51 2 53 4 2 2 2 44 -1 92 l-5 87 125 -7 c146 -7 183 -14 173
-30 -4 -6 -8 -38 -8 -71 0 -44 4 -62 15 -67 8 -4 -52 -7 -134 -7 l-149 -1 7
-142 c3 -79 9 -263 12 -410 l7 -268 43 0 43 0 -4 48 c-2 26 -5 162 -6 302 -2
140 -5 293 -8 339 l-6 84 100 -6 c55 -3 111 -10 125 -15 14 -6 20 -11 14 -11
-8 -1 -11 -25 -9 -73 3 -63 7 -564 6 -640 -1 -24 -5 -28 -29 -28 l-28 0 1
-262 c0 -254 1 -263 20 -270 11 -4 -41 -6 -116 -5 l-136 2 -6 -680 c-10 -1042
-40 -1848 -102 -2745 -17 -239 -15 -223 -50 -625 -54 -617 -180 -1703 -200
-1723 -17 -17 -477 95 -713 174 -612 204 -1121 499 -1506 874 -345 336 -565
704 -671 1125 -33 130 -65 338 -65 422 0 39 2 44 18 38 9 -4 76 -9 148 -12
212 -9 239 9 232 155 -10 192 -146 484 -415 890 -63 96 -116 172 -119 170 -2
-3 10 -40 27 -84 53 -138 94 -325 68 -308 -5 3 -7 9 -4 14 3 5 1 11 -4 15 -21
12 -97 290 -104 375 -1 11 -4 20 -7 20 -7 0 -81 -103 -167 -230 -249 -369
-379 -651 -390 -845 -9 -163 15 -181 227 -171 74 4 151 9 171 12 l36 6 6 -174
c12 -354 80 -707 201 -1041 432 -1190 1540 -2101 3311 -2722 88 -31 178 -66
200 -79 51 -30 164 -128 279 -240 l88 -86 122 118 c116 113 223 198 276 221
14 6 124 47 245 92 871 322 1582 682 2098 1062 193 142 346 274 517 446 231
233 387 437 532 694 253 451 376 1001 341 1534 -6 92 -10 169 -9 169 0 1 52
-3 115 -9 127 -12 229 -1 262 29 42 37 12 221 -67 412 -70 170 -200 402 -357
637 -124 186 -114 179 -121 93 -17 -218 -30 -610 -30 -899 0 -189 1 -197 23
-228 23 -32 24 -36 18 -209 -6 -200 -28 -337 -81 -514 -172 -565 -595 -1108
-1241 -1592 -190 -142 -561 -375 -587 -368 -5 1 -8 -2 -8 -8 0 -5 -7 -10 -15
-10 -8 0 -15 -3 -15 -7 0 -5 -19 -17 -43 -27 -23 -11 -51 -27 -61 -35 -17 -14
-18 -14 -11 -1 7 13 6 13 -11 0 -31 -25 -104 -62 -104 -53 0 4 -4 2 -8 -4 -9
-15 -263 -125 -437 -190 -203 -77 -566 -181 -640 -184 -2 0 -18 -4 -35 -9 -36
-10 -124 -24 -162 -24 -14 -1 -25 -2 -23 -4 3 -3 -47 -50 -104 -97 l-24 -20
12 23 c7 12 9 27 6 32 -3 5 -1 12 5 15 8 5 8 11 0 20 -6 7 -9 25 -6 39 3 14 0
28 -5 32 -6 4 -6 11 2 20 9 11 8 14 -2 14 -11 0 -11 2 1 10 11 7 11 10 2 10
-10 0 -10 5 -1 21 6 12 7 19 1 15 -6 -4 -9 11 -7 39 1 25 -2 48 -7 51 -4 3 -6
10 -3 15 11 18 14 49 4 54 -5 4 -5 14 2 27 8 15 8 19 0 13 -8 -4 -10 2 -7 19
3 14 0 28 -5 32 -6 4 -6 10 0 18 6 7 8 16 4 20 -11 11 -10 40 2 48 7 5 6 8 -1
8 -6 0 -10 20 -9 50 1 28 -2 53 -6 56 -5 3 -4 16 1 29 7 17 6 25 -1 25 -8 0
-8 4 0 14 7 8 8 17 3 20 -5 3 -8 18 -7 33 1 15 -2 33 -7 40 -5 7 -5 14 2 18 6
3 7 11 4 17 -11 18 -10 68 1 68 7 0 7 3 0 8 -6 4 -10 32 -10 62 0 30 -2 59 -4
65 -10 19 -7 45 3 45 7 0 7 3 1 8 -5 4 -11 43 -12 87 -3 158 -12 326 -18 335
-3 6 0 10 7 10 8 0 9 3 3 8 -5 4 -11 59 -12 122 -2 63 -5 167 -8 230 -6 122
-11 264 -21 555 -3 99 -7 194 -8 210 -2 17 2 36 8 44 6 8 7 12 1 9 -7 -4 -11
34 -13 105 -1 62 -4 177 -6 257 -3 80 -8 294 -11 475 -4 182 -8 357 -10 390
-2 33 -7 578 -11 1210 -5 819 -10 1152 -18 1157 -6 4 12 8 41 8 28 0 55 -4 58
-10 3 -5 1 -10 -5 -10 -6 0 -8 -4 -5 -10 3 -5 0 -10 -7 -10 -10 0 -10 -2 0 -9
17 -11 17 -21 0 -32 -7 -5 -8 -9 -2 -9 6 0 11 -7 11 -15 0 -8 -5 -15 -11 -15
-6 0 -5 -4 2 -9 17 -11 17 -21 0 -32 -8 -5 -8 -9 -2 -9 14 0 13 -42 -1 -52 -6
-5 -6 -8 2 -8 12 0 12 -17 0 -36 -3 -6 -3 -14 0 -18 12 -12 11 -56 -1 -56 -7
0 -8 -3 -1 -8 14 -9 14 -45 0 -54 -7 -5 -7 -8 1 -8 5 0 10 -11 10 -25 0 -14
-5 -25 -10 -25 -8 0 -8 -3 -1 -8 6 -4 11 -16 11 -27 0 -11 -5 -23 -11 -27 -7
-5 -7 -8 0 -8 7 0 10 -54 10 -154 -1 -88 3 -152 8 -149 5 3 4 -4 -2 -15 -8
-14 -8 -23 -1 -27 8 -5 8 -11 0 -20 -8 -10 -8 -15 0 -20 8 -5 8 -10 0 -20 -8
-10 -8 -15 0 -20 8 -5 8 -10 0 -20 -8 -10 -8 -15 0 -20 8 -5 8 -11 1 -19 -7
-9 -7 -16 0 -23 8 -8 8 -13 0 -17 -7 -4 -7 -15 -1 -31 6 -16 6 -27 -1 -31 -8
-4 -7 -9 2 -15 10 -6 10 -9 2 -9 -9 0 -10 -7 -3 -26 6 -14 6 -23 2 -20 -10 6
-8 -126 2 -142 4 -7 2 -12 -6 -12 -10 0 -10 -2 1 -9 9 -6 10 -10 2 -16 -9 -5
-9 -10 0 -21 9 -11 8 -14 -2 -14 -12 0 -12 -2 -1 -9 17 -11 17 -21 0 -32 -7
-5 -8 -9 -3 -9 6 0 11 -13 11 -30 1 -19 -2 -28 -10 -23 -6 3 -6 0 2 -8 16 -17
16 -32 0 -23 -7 4 -5 -2 5 -13 10 -12 14 -23 10 -26 -11 -7 -11 -87 0 -104 4
-6 3 -14 -3 -18 -6 -4 -7 -12 -3 -18 12 -19 12 -36 1 -43 -6 -4 -5 -10 3 -15
10 -6 10 -9 2 -9 -9 0 -10 -7 -3 -26 6 -14 6 -23 2 -20 -10 6 -9 -65 1 -81 4
-6 1 -14 -5 -16 -10 -4 -10 -6 0 -6 6 -1 12 -6 12 -12 0 -5 -5 -7 -11 -3 -8 4
-8 0 0 -15 9 -16 9 -21 -1 -21 -9 0 -10 -3 -2 -8 7 -4 11 -37 10 -85 -1 -43 2
-81 7 -84 4 -2 3 -11 -3 -18 -8 -10 -8 -15 0 -20 8 -5 8 -11 -1 -21 -9 -11 -8
-14 2 -14 11 0 11 -2 -1 -10 -13 -9 -13 -10 0 -10 13 0 13 -1 0 -10 -13 -9
-13 -10 0 -10 13 0 13 -1 0 -10 -13 -9 -13 -10 0 -10 13 0 13 -1 0 -10 -13 -9
-13 -10 0 -10 13 0 13 -1 0 -10 -13 -9 -13 -10 0 -10 13 0 13 -1 0 -10 -13 -9
-13 -10 0 -10 13 0 13 -1 0 -10 -8 -5 -10 -10 -4 -10 6 0 11 -7 11 -15 0 -8
-5 -15 -11 -15 -6 0 -5 -4 2 -9 8 -4 14 -12 14 -16 0 -4 -6 -12 -14 -16 -7 -5
-8 -9 -2 -9 6 0 10 -17 9 -40 -1 -23 2 -43 6 -46 5 -2 4 -15 -1 -29 -6 -16 -5
-25 3 -29 9 -3 8 -5 -1 -5 -8 -1 -10 -6 -5 -13 10 -17 13 -39 4 -34 -9 6 -7
-65 2 -81 4 -6 1 -14 -5 -16 -10 -4 -10 -6 0 -6 6 -1 12 -6 12 -12 0 -5 -5 -7
-11 -3 -7 4 -7 -1 1 -16 6 -12 10 -42 7 -66 -2 -24 0 -44 5 -44 5 0 4 -9 -2
-20 -8 -15 -8 -20 2 -20 9 0 9 -3 -2 -10 -13 -9 -13 -10 0 -10 13 0 13 -1 0
-10 -13 -9 -13 -10 0 -10 13 0 13 -1 0 -10 -13 -9 -13 -10 0 -10 13 0 13 -1 0
-10 -13 -9 -13 -10 0 -10 13 0 13 -1 0 -10 -10 -6 -11 -10 -2 -10 6 0 12 -5
12 -11 0 -5 -5 -7 -11 -3 -8 4 -8 0 0 -15 9 -16 9 -21 -1 -21 -9 0 -10 -2 -1
-8 6 -4 10 -29 9 -59 -1 -28 1 -50 4 -48 3 2 4 -11 3 -28 -1 -18 -2 -32 -3
-32 -7 0 -4 -88 3 -92 5 -3 3 -9 -4 -14 -10 -6 -11 -9 -1 -9 6 0 12 -7 12 -15
0 -8 -6 -15 -12 -15 -9 0 -8 -4 2 -10 8 -5 11 -10 5 -10 -5 0 -3 -5 5 -10 12
-8 12 -10 -5 -10 -16 0 -17 -2 -6 -9 8 -5 15 -25 16 -44 0 -20 -2 -34 -5 -32
-9 5 -5 -68 3 -82 4 -6 1 -14 -5 -16 -10 -4 -10 -6 0 -6 6 -1 12 -8 12 -16 0
-8 -6 -15 -12 -15 -10 0 -9 -3 1 -9 9 -6 14 -31 15 -74 0 -36 -1 -64 -4 -62
-4 2 -6 -7 -6 -20 0 -13 4 -21 8 -19 4 3 8 1 8 -5 0 -5 -6 -12 -13 -14 -9 -4
-9 -6 1 -6 16 -1 16 -28 0 -34 -8 -3 -5 -6 5 -6 10 -1 15 -6 12 -11 -4 -6 -11
-7 -17 -4 -6 4 -4 -3 5 -16 12 -18 14 -27 5 -37 -6 -7 -7 -13 -2 -13 5 0 9
-13 9 -29 1 -16 -3 -28 -7 -25 -4 2 -5 -6 -2 -18 3 -13 6 -28 8 -35 1 -7 5
-15 8 -18 9 -9 -3 -45 -16 -46 -6 0 -2 -4 9 -9 11 -5 14 -9 7 -9 -7 -1 -10 -6
-7 -12 10 -15 13 -89 4 -83 -9 5 -6 -17 4 -34 5 -7 3 -12 -5 -12 -9 0 -10 -3
-2 -8 6 -4 13 -26 15 -49 4 -33 2 -39 -9 -31 -9 8 -11 7 -6 -6 3 -9 9 -16 13
-16 4 0 7 -10 5 -22 -1 -13 -3 -23 -4 -23 -1 0 -3 -8 -5 -18 -2 -9 1 -15 6
-11 5 3 9 1 9 -5 0 -5 -6 -12 -12 -14 -10 -4 -10 -6 0 -6 6 -1 12 -7 12 -15 0
-8 -6 -17 -12 -19 -9 -4 -8 -6 2 -6 11 -1 15 -13 15 -45 0 -24 -3 -42 -7 -39
-5 2 -8 -1 -8 -6 0 -6 6 -11 13 -11 8 0 7 -4 -3 -10 -13 -9 -13 -10 0 -10 13
0 13 -1 0 -10 -10 -6 -11 -10 -2 -10 6 0 12 -7 12 -15 0 -8 -5 -15 -11 -15 -6
0 -3 -7 5 -16 20 -20 21 -30 1 -14 -20 16 -19 6 1 -14 8 -9 11 -16 5 -16 -6 0
-11 -5 -11 -11 0 -5 4 -8 8 -5 5 3 9 -1 9 -9 0 -8 -4 -12 -9 -9 -4 3 -8 0 -8
-5 0 -6 4 -11 9 -11 10 0 9 -26 -2 -36 -4 -4 -2 -13 4 -21 7 -7 12 -31 13 -52
1 -31 -2 -37 -12 -29 -9 8 -11 7 -6 -6 3 -9 9 -16 13 -16 4 0 7 -11 7 -24 0
-14 -3 -23 -6 -21 -3 2 -6 -9 -5 -25 0 -18 4 -25 10 -20 13 10 13 -99 1 -119
-6 -10 -5 -12 2 -7 7 4 12 3 12 -3 0 -5 -6 -12 -12 -14 -10 -4 -10 -6 0 -6 6
-1 12 -9 12 -18 0 -15 -2 -16 -10 -3 -7 10 -10 11 -10 2 0 -7 8 -16 17 -19 15
-6 15 -7 -3 -14 -18 -7 -18 -8 1 -9 l20 -1 -20 -9 c-14 -6 -15 -9 -5 -9 17 -1
21 -46 6 -70 -6 -10 -5 -12 2 -7 7 4 12 2 12 -3 0 -6 -6 -11 -12 -11 -10 0
-10 -2 -1 -8 7 -5 15 -23 17 -40 2 -24 0 -30 -9 -22 -8 7 -11 4 -10 -11 1 -11
6 -24 11 -27 11 -8 12 -27 2 -37 -4 -4 -1 -23 7 -42 12 -28 12 -33 2 -24 -11
8 -13 6 -12 -10 1 -11 6 -24 11 -27 12 -9 17 -72 6 -72 -5 0 -9 -7 -9 -15 0
-9 4 -11 11 -6 8 6 11 -1 11 -24 0 -18 -3 -31 -7 -29 -5 3 -6 9 -3 14 3 5 2
11 -3 14 -12 7 -8 -54 4 -62 5 -4 10 -13 12 -21 3 -12 1 -12 -15 0 -16 12 -17
12 -6 -2 8 -10 12 -35 9 -63 -2 -32 1 -49 10 -53 12 -4 11 -36 -2 -72 -3 -10
-1 -11 9 -3 10 9 12 1 11 -36 -3 -64 -3 -64 -15 -56 -7 4 -7 -1 1 -16 6 -12
10 -30 7 -40 -4 -14 0 -17 14 -14 11 2 29 6 42 9 12 3 47 9 77 15 80 14 113
20 132 26 9 3 26 7 37 9 47 11 58 13 101 25 25 7 50 13 55 14 24 6 163 48 190
59 17 6 32 12 35 13 25 4 76 22 132 45 36 15 69 25 72 21 3 -3 6 0 6 6 0 7 3
11 8 10 7 -1 25 5 77 27 102 43 165 72 201 92 23 12 44 19 48 16 3 -4 6 -1 6
5 0 7 5 12 12 12 6 0 20 8 31 18 13 10 17 12 12 3 -5 -8 8 -2 27 13 20 15 45
28 56 29 12 0 19 4 17 8 -5 8 85 55 98 51 5 -1 6 1 4 5 -3 5 6 13 19 20 18 8
23 8 18 0 -3 -7 3 -2 13 9 10 12 47 41 83 64 36 24 87 62 115 84 27 23 46 35
41 29 -4 -8 -2 -13 4 -13 6 0 9 -4 6 -9 -4 -5 1 -8 10 -7 18 3 39 34 30 43 -3
4 -6 0 -6 -8 0 -12 -2 -11 -11 1 -8 12 -9 9 -4 -10 5 -21 4 -22 -5 -7 -8 12
-8 22 -1 35 6 9 11 13 11 8 0 -5 10 3 21 18 12 15 23 25 25 23 3 -2 26 15 51
39 26 23 51 40 55 38 4 -3 8 1 8 8 0 10 3 9 9 -2 6 -8 7 -19 3 -25 -3 -5 2 -4
11 4 18 15 23 26 7 16 -6 -3 -10 3 -10 14 0 12 5 21 11 21 5 0 7 -6 3 -13 -4
-7 -3 -9 2 -4 5 5 9 14 9 20 1 7 7 11 14 9 7 -1 10 2 7 6 -8 14 31 45 45 36 7
-4 10 -3 5 4 -8 13 43 54 58 45 6 -3 8 -3 4 2 -10 10 31 47 44 39 4 -3 7 -1 6
4 -2 5 9 21 25 35 15 14 27 24 27 22 0 -2 15 11 33 28 19 18 102 94 186 171
145 133 291 287 401 426 325 406 497 863 512 1353 l3 87 -30 5 c-16 3 -93 12
-169 19 -142 15 -158 21 -150 60 2 11 6 36 9 56 8 54 12 71 26 120 7 25 13 48
15 53 1 4 2 8 4 10 1 1 3 10 5 20 2 10 7 26 11 35 9 21 15 43 16 60 1 6 6 12
11 12 6 0 8 3 4 6 -3 4 0 19 8 34 8 15 11 30 8 34 -4 3 0 6 7 6 7 0 11 3 8 6
-11 10 128 336 226 532 31 61 56 115 56 119 -1 15 -177 -261 -260 -406 -170
-296 -267 -536 -277 -682 -6 -74 -5 -77 20 -94 51 -33 220 -38 402 -11 13 1 8
-71 -16 -224 -118 -748 -546 -1357 -1272 -1810 -376 -234 -893 -439 -1396
-551 -139 -31 -293 -61 -296 -56 -5 5 -47 311 -75 532 -178 1442 -269 2975
-273 4615 l-2 625 555 -2 c305 -1 733 -8 951 -16 l396 -15 68 -40 c80 -49 155
-67 248 -59 225 19 393 232 357 451 -11 66 -20 84 -20 40 0 -16 -13 -52 -30
-80 -68 -120 -198 -202 -330 -209 -62 -4 -70 -2 -60 10 11 13 0 15 -81 16 -52
1 -143 2 -204 4 -60 1 -492 6 -960 10 -624 5 -852 10 -857 18 -16 24 -8 34 25
31 17 -2 374 -6 792 -9 418 -3 891 -7 1050 -9 305 -4 341 0 431 47 79 41 159
157 171 247 3 23 10 37 16 33 24 -14 -32 62 -71 99 -67 62 -141 91 -243 96
-104 5 -174 -13 -249 -63 l-52 -35 -321 -10 c-719 -21 -1300 -32 -1436 -25
l-144 7 7 252 c3 138 9 322 12 409 l7 157 58 0 59 0 0 109 0 109 33 7 c84 19
131 91 125 192 -7 108 -67 163 -179 163 l-68 0 -3 73 -3 72 -67 -3 c-38 -2
-68 -1 -68 1 0 2 30 20 66 38 140 72 300 225 384 369 87 150 129 291 137 465
13 285 -83 538 -282 741 -138 141 -283 225 -473 275 -100 27 -317 34 -419 15z
m352 -135 c230 -69 438 -223 547 -407 183 -307 160 -684 -58 -971 -177 -232
-492 -365 -777 -329 -27 3 -52 8 -55 10 -4 2 -24 7 -45 10 -113 18 -291 115
-392 213 -135 131 -235 292 -276 448 -32 122 -30 291 5 408 98 328 345 566
656 632 95 21 304 13 395 -14z m133 -1782 c-22 -12 -26 -104 -5 -112 6 -3 -5
-6 -27 -6 -29 -1 -36 2 -29 12 15 20 10 96 -7 107 -11 7 0 10 35 10 39 -1 46
-3 33 -11z m-473 -173 c155 -21 215 -31 223 -36 2 -3 7 -4 39 -15 13 -4 20
-11 17 -16 -3 -5 -10 -7 -15 -4 -5 4 -9 2 -9 -3 0 -5 -6 -9 -12 -9 -25 -2
-214 -23 -255 -29 -23 -3 -54 -16 -68 -29 -37 -31 -109 -45 -265 -52 -188 -8
-250 11 -250 78 0 33 20 79 44 98 42 35 88 42 261 37 94 -3 224 -12 290 -20z
m535 -413 c-30 -11 -41 -25 -30 -38 8 -9 8 -15 0 -20 -8 -5 -8 -11 1 -21 6 -8
8 -14 4 -14 -4 0 -2 -7 5 -15 11 -13 6 -15 -36 -15 -42 0 -46 2 -30 13 14 11
17 24 15 65 l-4 52 45 -1 c25 0 38 -3 30 -6z m-65 -233 c-11 -5 -17 -9 -13 -9
4 -1 3 -12 -2 -25 -5 -15 -5 -27 3 -35 8 -8 7 -11 -3 -11 -13 0 -13 -2 0 -10
13 -9 13 -10 0 -10 -13 0 -13 -1 0 -10 10 -6 11 -10 3 -10 -9 0 -10 -7 -5 -22
10 -28 9 -99 -1 -115 -4 -6 -3 -14 3 -18 6 -4 7 -11 3 -18 -10 -16 -10 -58 0
-64 4 -2 3 -11 -3 -18 -8 -10 -8 -15 0 -20 8 -5 8 -10 0 -20 -8 -10 -8 -15 0
-20 8 -5 8 -10 0 -20 -8 -9 -8 -15 0 -20 6 -3 7 -12 3 -18 -4 -7 -8 -57 -8
-112 l0 -100 -38 -3 -38 -3 3 360 3 361 55 -1 c40 0 50 -3 35 -9z m2399 -650
c64 -24 85 -133 36 -185 -21 -22 -29 -23 -153 -25 -788 -7 -1774 -19 -1969
-24 -85 -2 -105 0 -101 11 4 10 38 13 142 14 304 1 896 14 896 19 0 1 16 2 37
3 20 1 34 -1 32 -4 -5 -8 43 -5 52 4 4 3 -4 4 -16 2 -14 -3 -20 -1 -14 4 13
13 73 21 79 11 3 -5 -4 -7 -15 -5 -11 2 -18 0 -16 -4 5 -7 56 -7 64 -1 1 1 7
4 12 5 6 1 12 4 15 5 3 1 11 3 18 4 6 1 11 7 9 14 -1 7 1 12 5 13 5 0 17 2 28
4 82 16 500 48 631 49 63 1 70 3 72 21 0 11 15 32 32 48 32 29 77 35 124 17z
m-2392 -325 c3 -249 2 -266 -15 -271 -10 -3 -19 -4 -20 -2 -1 1 -1 123 1 271
2 224 5 267 17 267 12 0 15 -43 17 -265z m1495 170 c4 -4 3 -5 -4 -1 -6 3 -14
2 -18 -4 -4 -6 -10 -8 -15 -5 -5 3 -11 1 -15 -5 -7 -11 -25 -4 -25 10 0 16 63
21 77 5z m-2024 -502 c26 -4 34 -9 28 -17 -5 -6 -9 -340 -10 -821 0 -445 -3
-922 -5 -1060 -3 -137 -8 -430 -11 -650 -4 -220 -8 -467 -10 -550 -2 -82 -6
-274 -10 -425 -3 -151 -8 -320 -10 -375 -3 -55 -7 -190 -10 -300 -3 -110 -8
-240 -10 -290 -3 -49 -7 -162 -10 -250 -3 -88 -8 -203 -10 -255 -3 -52 -7
-162 -11 -245 -3 -82 -7 -177 -9 -210 -2 -33 -6 -132 -10 -220 -4 -88 -8 -176
-10 -195 -6 -70 -19 -358 -19 -452 l-1 -96 -45 36 c-25 19 -59 49 -77 65 -23
22 -43 30 -75 32 -24 1 -56 5 -73 8 -16 4 -45 9 -64 12 -19 3 -37 8 -40 10 -4
2 -25 6 -47 9 -22 4 -71 15 -108 26 -36 10 -69 19 -71 19 -23 -1 -287 87 -445
149 -203 79 -640 299 -625 314 3 3 -1 5 -7 5 -16 0 -152 82 -156 94 -2 5 -10
9 -18 9 -8 0 -14 4 -14 10 0 5 -3 9 -7 8 -11 -4 -133 83 -133 94 0 5 -4 7 -9
3 -6 -3 -14 3 -20 12 -5 10 -11 16 -13 13 -2 -2 -13 2 -25 11 -13 9 -20 19
-16 22 3 4 0 7 -8 7 -12 0 -51 29 -111 84 -10 9 -23 16 -29 16 -5 0 -8 4 -5 9
3 4 -6 13 -19 19 -14 7 -25 16 -25 22 0 5 -7 10 -16 10 -8 0 -12 5 -9 10 3 6
0 10 -7 10 -8 0 -20 9 -28 20 -8 11 -21 20 -29 20 -8 0 -12 3 -8 6 8 8 -18 34
-33 34 -6 0 -8 5 -5 10 3 6 -1 10 -9 10 -8 0 -18 9 -21 20 -4 11 -9 19 -13 17
-4 -1 -28 19 -53 45 -26 27 -44 48 -42 48 3 0 -9 13 -26 29 -16 15 -27 31 -24
35 3 3 0 6 -8 6 -14 0 -45 39 -41 53 1 4 -4 7 -11 7 -12 0 -36 27 -76 85 -8
11 3 4 25 -17 21 -20 54 -50 72 -66 33 -31 45 -54 15 -31 -16 13 -17 12 -5 -3
8 -9 19 -15 25 -12 7 2 39 -19 72 -48 33 -28 85 -69 115 -92 30 -22 57 -43 60
-47 3 -3 28 -20 55 -39 28 -19 52 -36 55 -39 3 -3 17 -12 33 -20 15 -8 27 -18
27 -23 0 -4 4 -8 8 -8 5 0 58 -30 118 -66 145 -88 433 -228 619 -302 206 -82
510 -178 656 -207 13 -3 35 -8 49 -11 24 -5 38 -8 98 -20 26 -5 49 -9 102 -18
14 -3 25 -5 25 -6 0 -2 48 -9 85 -13 15 -1 34 -15 48 -34 12 -18 24 -33 25
-33 1 0 2 19 3 43 0 41 12 160 19 197 2 10 6 50 10 87 3 37 7 84 10 103 5 41
12 111 20 195 4 33 8 76 10 95 2 19 7 71 10 115 3 44 8 96 10 115 5 38 10 92
25 280 6 69 12 145 15 170 2 25 7 88 10 140 3 52 8 111 10 130 2 19 7 78 10
130 3 52 8 115 10 140 2 25 7 97 10 160 3 63 8 131 10 150 2 19 7 98 11 175 3
77 8 147 9 155 2 8 6 96 10 195 3 99 8 191 10 205 2 14 6 106 10 205 3 99 8
203 10 230 2 28 7 158 10 290 4 132 9 263 10 290 9 140 20 898 20 1414 l0 583
80 -6 c44 -4 97 -9 118 -13z m-3791 -2075 c-9 -146 -9 -658 0 -769 9 -104 24
-174 43 -203 9 -11 15 -43 15 -71 0 -28 7 -106 15 -173 63 -505 246 -979 547
-1414 60 -88 192 -259 229 -298 8 -8 41 -47 74 -85 33 -38 83 -94 112 -124 28
-30 50 -59 47 -63 -3 -5 0 -7 8 -6 7 2 12 -3 11 -9 -2 -7 3 -12 10 -10 6 1 11
-4 10 -10 -2 -7 3 -12 10 -10 6 1 11 -4 10 -10 -2 -7 3 -12 10 -10 6 1 11 -4
10 -10 -2 -7 0 -12 5 -10 4 1 38 -28 76 -65 59 -59 67 -74 34 -69 -13 2 -9 -5
19 -30 14 -13 23 -18 19 -11 -5 8 0 12 16 12 18 0 20 -2 8 -10 -14 -9 -7 -14
13 -11 5 1 6 -3 2 -9 -3 -5 1 -10 10 -10 11 0 15 -7 13 -22 -2 -19 1 -22 21
-20 21 3 23 1 17 -25 -6 -26 -5 -26 8 -10 14 18 15 17 21 -3 4 -12 4 -24 1
-27 -3 -4 -6 1 -6 11 0 9 -5 14 -10 11 -6 -4 -7 -11 -4 -17 4 -7 2 -8 -4 -4
-7 4 -12 1 -12 -8 0 -10 6 -13 18 -10 16 5 16 5 0 -5 -10 -7 -15 -20 -13 -33
3 -11 1 -17 -3 -14 -4 4 -7 11 -7 14 0 4 -4 13 -9 20 -6 10 -11 10 -22 1 -12
-10 -15 -10 -12 2 2 8 -3 13 -10 11 -8 -1 -11 2 -6 9 5 9 2 10 -9 6 -16 -6
-31 8 -32 28 0 6 -11 8 -25 7 -33 -5 -22 5 13 12 18 3 25 1 21 -6 -4 -7 -2 -8
4 -4 7 4 9 -1 7 -15 -2 -12 -1 -18 3 -15 4 4 7 13 7 19 1 7 7 11 14 9 8 -1 10
2 4 10 -4 7 -8 26 -8 42 0 20 -6 30 -17 32 -10 1 -17 -1 -17 -4 3 -19 -3 -23
-16 -12 -8 7 -12 17 -8 24 5 8 3 8 -8 0 -19 -14 -45 -11 -41 5 1 7 -2 10 -7 7
-5 -4 -12 -2 -15 3 -7 10 -25 9 -43 -2 -8 -5 -13 -3 -13 5 0 9 -3 9 -10 -2 -8
-12 -10 -11 -10 7 0 17 5 21 20 18 12 -2 18 0 15 6 -4 5 -11 7 -16 4 -5 -4 -9
0 -9 7 0 10 -3 9 -11 -2 -9 -12 -10 -11 -6 8 3 12 1 20 -4 16 -5 -3 -9 1 -10
8 0 10 -2 10 -6 0 -2 -6 -10 -9 -15 -6 -6 4 -8 2 -4 -4 3 -5 0 -9 -8 -8 -19 3
-58 37 -51 44 3 3 12 -3 20 -14 9 -12 14 -14 15 -6 0 8 5 10 13 6 7 -4 9 -3 4
2 -5 5 -13 10 -18 10 -5 1 -12 2 -15 3 -4 0 0 9 7 18 11 15 11 16 -1 6 -8 -7
-23 -13 -33 -13 -16 0 -17 3 -8 14 9 11 9 16 0 22 -8 4 -9 3 -5 -4 10 -16 -15
-14 -37 2 -18 14 -18 14 0 19 14 4 14 5 -4 6 -15 1 -23 7 -23 19 0 14 2 15 10
2 5 -8 10 -10 10 -4 0 19 -13 24 -28 11 -13 -9 -14 -9 -8 1 4 7 1 12 -9 12 -9
0 -13 5 -10 10 3 6 -1 10 -10 10 -9 0 -13 5 -10 10 3 6 -1 10 -9 10 -8 0 -18
9 -21 20 -4 11 -11 17 -17 14 -8 -5 -9 -1 -5 10 4 9 3 15 -2 12 -9 -6 -67 64
-63 77 1 5 -2 6 -7 3 -5 -4 -19 6 -30 21 -12 16 -33 41 -46 56 -14 15 -23 33
-19 39 4 6 3 8 -3 5 -16 -10 -187 236 -292 420 -113 199 -228 476 -290 697
-66 233 -111 533 -111 732 0 97 -2 113 -17 119 -10 3 -76 11 -148 17 -81 6
-135 15 -144 23 -19 18 -17 161 4 250 22 97 79 268 136 405 70 170 166 370
178 370 6 0 10 3 10 8 -2 11 1 22 5 22 3 0 2 -51 -2 -112z m8190 -561 c3 4 3
3 2 -4 -2 -6 3 -17 11 -23 8 -6 11 -18 8 -26 -3 -8 1 -14 8 -14 7 0 9 -3 6 -7
-4 -3 -15 1 -25 10 -17 15 -18 15 -19 -3 -1 -11 2 -22 8 -25 5 -3 6 1 2 10 -5
15 -3 15 16 4 12 -8 16 -16 10 -18 -8 -2 -8 -5 0 -10 6 -4 13 -17 16 -30 2
-12 0 -19 -5 -16 -12 7 -6 -25 7 -33 14 -10 22 -72 9 -72 -6 0 -5 -4 3 -9 8
-5 11 -16 8 -25 -3 -8 -3 -18 2 -20 4 -3 7 -18 6 -33 -1 -32 -19 -43 -113 -69
l-63 -18 7 -85 c19 -222 0 -530 -47 -750 -165 -779 -695 -1490 -1519 -2036
-504 -335 -1085 -591 -1677 -739 -127 -32 -340 -76 -438 -90 -43 -7 -53 -10
-195 -54 -154 -49 -210 -54 -328 -27 -12 3 -31 7 -42 9 -11 3 -24 7 -28 10 -5
3 -19 7 -33 10 -13 3 -49 11 -79 19 -30 8 -73 18 -95 21 -22 3 -51 8 -65 11
-14 3 -45 8 -70 11 -25 3 -53 8 -62 10 -53 12 -66 14 -98 20 -140 25 -453 116
-648 189 -113 43 -79 39 49 -4 100 -35 230 -75 278 -87 9 -2 34 -8 56 -14 43
-11 68 -18 100 -25 11 -2 31 -6 45 -10 76 -17 101 -21 150 -29 19 -3 46 -8 60
-10 39 -7 110 -16 165 -22 28 -3 61 -7 75 -10 14 -3 39 -8 55 -11 17 -3 38 -9
47 -14 10 -5 18 -8 18 -5 0 3 15 0 33 -5 17 -6 41 -12 52 -14 11 -2 34 -7 50
-10 17 -4 48 -8 70 -10 22 -2 45 -4 50 -5 6 -1 12 -1 15 0 3 1 23 4 45 5 22 1
52 7 67 13 15 6 40 13 55 16 15 2 29 5 31 5 1 1 4 1 7 1 3 1 22 7 44 15 22 7
54 16 73 19 18 3 44 8 58 10 14 3 41 7 60 10 19 3 45 8 56 10 12 2 37 7 55 10
19 3 45 8 59 11 14 3 36 7 50 10 28 5 60 12 90 20 11 3 29 7 40 10 11 3 29 7
40 10 11 3 29 7 40 10 32 8 64 16 80 20 8 2 15 4 15 5 0 1 8 3 18 6 9 2 25 6
35 8 9 3 17 5 17 6 0 1 7 3 15 5 8 2 53 16 100 31 47 15 87 28 90 29 3 1 14 5
25 9 61 23 75 28 80 27 2 0 30 10 60 24 31 13 56 24 58 24 1 0 15 4 30 10 16
6 30 11 32 11 3 0 30 12 62 26 32 15 74 33 93 41 19 8 58 26 87 40 29 14 55
24 59 23 4 -1 10 2 13 7 8 11 63 37 74 35 4 -1 7 2 7 7 0 8 37 24 53 22 4 -1
7 4 7 10 0 5 5 7 10 4 6 -3 10 -1 10 4 0 6 5 11 10 11 6 0 28 11 49 24 21 14
42 22 45 19 3 -4 6 -1 6 5 0 7 5 12 12 12 6 0 20 8 31 18 15 12 19 13 13 2 -7
-13 -6 -13 6 0 16 18 65 49 91 57 9 3 17 9 17 14 0 5 5 9 11 9 7 0 34 16 61
36 28 19 47 30 43 22 -4 -7 3 -2 15 12 12 14 19 18 15 10 -6 -13 -5 -13 7 0
25 28 62 56 53 40 -5 -8 4 -3 20 12 15 16 34 28 42 28 8 0 11 5 8 10 -3 6 0
10 7 10 7 0 26 11 41 25 15 14 27 23 27 20 0 -3 12 6 28 20 15 14 42 35 60 46
17 11 32 26 32 31 0 6 3 8 7 5 3 -4 17 5 30 19 12 14 23 22 23 18 0 -4 11 5
24 19 13 14 27 23 30 20 3 -4 6 2 6 12 0 10 3 16 6 13 3 -3 21 9 40 28 19 19
34 31 34 27 0 -4 5 0 11 10 6 9 15 15 20 11 5 -3 8 -1 7 4 -4 12 97 112 112
112 6 0 8 5 4 12 -5 8 -2 9 10 5 10 -4 15 -3 11 3 -7 12 105 131 117 124 4 -3
5 3 1 12 -4 12 -3 15 5 10 7 -4 12 -2 12 4 0 7 12 24 28 40 41 42 52 57 44 65
-4 4 -2 6 3 5 6 -1 17 -2 25 -1 13 1 13 2 0 11 -13 8 -12 10 3 10 10 0 15 5
12 10 -3 6 2 10 12 10 15 0 16 2 3 10 -13 8 -13 10 1 10 9 0 23 8 30 18 13 16
13 16 -6 2 -11 -9 -5 5 15 33 19 27 39 51 45 55 5 3 3 -3 -5 -14 -14 -18 -14
-18 2 -5 10 7 15 18 12 23 -4 6 4 20 18 32 13 11 17 17 9 11 -10 -7 -8 -1 4
17 11 15 24 28 28 28 5 0 5 5 1 12 -5 8 -2 9 11 4 16 -6 16 -4 4 11 -8 9 -9
14 -3 10 7 -4 14 3 18 18 4 14 11 25 17 25 6 0 7 5 3 12 -5 8 -2 9 11 4 16 -6
16 -4 4 11 -12 14 -12 16 0 8 11 -6 13 -4 8 9 -4 10 -3 15 3 11 9 -6 15 16 11
39 -1 5 4 4 12 -2 11 -9 13 -7 13 11 -1 14 4 21 13 19 11 -2 12 0 3 11 -10 11
-8 19 8 38 l21 24 -17 -30 -16 -30 20 25 c14 17 17 28 11 36 -7 8 -6 14 1 19
6 3 7 11 4 17 -4 7 -2 8 5 4 9 -6 9 -12 -1 -24 -12 -15 -11 -16 5 -3 9 8 15
16 13 19 -3 3 3 17 14 31 12 18 16 32 10 41 -5 8 -4 22 1 33 6 10 8 26 4 35
-3 9 -3 13 1 9 4 -4 14 -1 23 6 13 10 14 10 5 -3 -21 -31 -33 -69 -23 -75 5
-4 8 -3 7 2 -3 11 12 56 25 72 6 7 12 20 13 28 1 7 8 21 15 30 13 14 19 44 20
86 0 16 3 17 17 6 14 -11 15 -11 5 1 -15 16 -17 34 -4 25 5 -3 13 0 17 7 4 7
4 10 -1 6 -4 -4 -13 -3 -20 2 -8 6 -12 6 -13 -3 -1 -6 -4 -25 -7 -42 -3 -16
-7 -35 -7 -42 -1 -7 -6 -9 -12 -6 -6 4 -5 0 2 -9 9 -11 10 -18 2 -23 -5 -3
-10 0 -11 7 0 7 -2 21 -4 31 -2 10 1 14 7 11 6 -4 8 -1 6 7 -3 8 1 26 9 42 7
15 11 27 8 27 -4 0 -3 6 2 13 4 6 9 18 10 25 5 22 10 37 17 54 4 9 9 24 10 34
2 10 11 21 22 25 18 7 18 8 -1 8 -16 1 -17 3 -5 10 8 6 18 7 24 4 5 -3 6 -1 2
6 -4 6 -12 9 -17 6 -5 -3 -6 1 -3 9 3 9 11 13 18 9 7 -4 7 -1 -1 9 -7 8 -10
17 -8 20 3 3 8 16 10 29 3 13 14 65 25 114 50 226 74 458 68 664 l-3 125 59
23 c65 25 76 35 69 64 -3 12 0 19 8 19 9 0 10 3 4 8 -5 4 -10 39 -10 77 0 39
5 73 10 77 6 5 6 8 -1 8 -6 0 -10 12 -9 28 1 15 -2 39 -6 55 -5 16 -4 25 2 22
12 -8 12 21 -2 48 -9 20 -9 21 4 4 8 -10 17 -14 19 -10z m-352 -1738 c-5 -9
-6 -20 -2 -25 4 -5 -1 -2 -10 5 -20 15 -25 26 -7 16 6 -4 10 -1 8 6 -1 8 -1
21 0 29 1 13 3 13 10 1 6 -9 6 -22 1 -32z m-62 -149 c-7 -11 -14 -17 -17 -15
-2 3 1 11 7 18 7 8 8 18 4 22 -4 5 -1 5 5 1 10 -5 10 -11 1 -26z m-6661 -972
c-3 -8 -6 -5 -6 6 -1 11 2 17 5 13 3 -3 4 -12 1 -19z m213 -12 c0 -9 -30 -14
-35 -6 -4 6 3 10 14 10 12 0 21 -2 21 -4z m-103 -48 c10 -8 26 -14 35 -13 9 2
22 -3 29 -11 10 -13 14 -13 28 0 15 14 17 12 17 -19 0 -18 -4 -31 -8 -29 -5 3
-5 10 -2 16 5 7 2 8 -7 3 -21 -13 -52 -14 -39 -1 14 14 13 29 -2 19 -20 -12
-52 -10 -66 4 -8 7 -18 10 -24 7 -7 -4 -8 -2 -4 4 4 7 0 12 -11 13 -17 1 -17
2 0 6 9 2 15 8 12 13 -9 14 23 5 42 -12z m3270 -403 c0 -8 -4 -12 -9 -9 -5 3
-6 10 -3 15 9 13 12 11 12 -6z m16 -240 c-3 -9 -8 -14 -10 -11 -3 3 -2 9 2 15
9 16 15 13 8 -4z m-2063 -240 c14 -8 21 -14 15 -14 -5 0 -21 6 -35 14 -14 8
-20 14 -15 14 6 0 21 -6 35 -14z m80 -35 c8 -5 11 -10 5 -10 -5 0 -17 5 -25
10 -8 5 -10 10 -5 10 6 0 17 -5 25 -10z m50 -20 c8 -5 11 -10 5 -10 -5 0 -17
5 -25 10 -8 5 -10 10 -5 10 6 0 17 -5 25 -10z"/>
<path d="M4517 11334 c-1 -1 -21 -4 -43 -7 -314 -43 -566 -278 -638 -596 -18
-78 -18 -258 0 -317 7 -24 11 -44 9 -44 -8 0 46 -125 80 -187 93 -164 303
-322 480 -359 153 -32 296 -25 430 21 223 77 397 251 478 482 30 84 31 95 31
243 1 144 -1 161 -27 235 -98 281 -310 464 -602 521 -28 6 -193 12 -198 8z
m204 -198 c245 -52 435 -271 455 -525 21 -265 -159 -520 -421 -597 -85 -25
-239 -23 -325 5 -359 114 -517 531 -324 851 38 63 129 155 192 194 123 76 278
102 423 72z"/>
<path d="M1853 2045 c0 -8 4 -12 9 -9 5 3 6 10 3 15 -9 13 -12 11 -12 -6z"/>
<path d="M1944 1915 c1 -13 5 -27 9 -31 4 -4 2 -13 -4 -20 -8 -10 -7 -18 5
-29 14 -15 16 -15 16 -1 0 9 6 16 13 16 6 0 13 12 13 26 1 17 -2 24 -11 20
-17 -6 -35 13 -28 30 3 8 1 14 -4 14 -6 0 -9 -11 -9 -25z m40 -28 c4 4 4 -1 0
-10 -3 -10 -7 -17 -8 -15 -1 2 -8 12 -16 23 -14 18 -13 19 1 8 9 -7 19 -10 23
-6z"/>
<path d="M1980 1831 c0 -6 4 -13 10 -16 6 -3 7 1 4 9 -7 18 -14 21 -14 7z"/>
<path d="M8775 4761 c-3 -5 -2 -12 3 -15 5 -3 9 1 9 9 0 17 -3 19 -12 6z"/>
<path d="M8514 3421 c2 -3 -1 -17 -7 -31 -23 -57 -27 -87 -12 -87 8 0 12 9 9
24 -3 15 -1 22 5 19 6 -4 8 2 6 13 -2 10 2 30 9 43 11 20 11 25 0 25 -7 0 -12
-3 -10 -6z"/>
<path d="M8069 2493 c-13 -16 -12 -17 4 -4 16 13 21 21 13 21 -2 0 -10 -8 -17
-17z"/>
<path d="M7789 2163 l-24 -28 28 24 c15 14 27 26 27 28 0 8 -8 1 -31 -24z"/>
<path d="M1786 1961 c-4 -5 -2 -12 4 -16 5 -3 10 -3 10 1 0 3 7 0 16 -7 19
-16 42 -20 49 -9 3 5 -3 7 -12 5 -10 -1 -28 6 -39 17 -13 12 -24 15 -28 9z"/>
<path d="M1820 8231 c-160 -49 -276 -194 -287 -358 -17 -240 162 -432 403
-433 69 0 170 32 224 71 l44 32 385 12 c586 20 836 25 1186 25 l320 0 3 103
c5 133 5 170 0 307 l-5 115 -179 -3 c-176 -4 -1369 22 -1594 34 -107 5 -118 8
-158 36 -68 48 -140 68 -234 67 -46 0 -94 -4 -108 -8z m135 -61 c41 -16 67
-50 63 -82 l-4 -27 35 15 c31 13 80 15 326 9 160 -3 333 -8 385 -10 52 -2 352
-7 665 -10 314 -4 576 -8 583 -10 6 -3 26 -26 42 -52 26 -41 28 -48 14 -53 -9
-3 -141 -5 -293 -4 -953 8 -1782 16 -1821 18 -25 1 -52 -2 -61 -6 -22 -10 -67
26 -85 68 -39 92 54 181 151 144z m-287 -349 c52 -52 121 -88 185 -98 23 -4
148 -6 277 -6 447 2 1855 14 1903 17 48 2 61 -10 35 -32 -9 -6 -312 -12 -858
-17 -465 -4 -892 -9 -950 -10 -58 -2 -149 -4 -202 -4 -82 -1 -96 -3 -92 -16 5
-12 -6 -14 -73 -11 -125 7 -207 45 -295 139 -51 54 -54 64 -36 134 l11 46 24
-48 c14 -26 46 -69 71 -94z"/>
<path d="M7011 2104 c-10 -13 -22 -20 -26 -16 -4 4 -3 -3 4 -15 7 -14 8 -24 1
-28 -10 -6 -14 1 -11 19 1 5 -5 4 -13 -4 -9 -7 -16 -9 -16 -5 0 4 -7 2 -15 -5
-8 -7 -12 -17 -9 -22 3 -5 9 -7 12 -4 3 3 11 1 19 -6 11 -9 13 -8 11 2 -2 8 2
14 7 15 21 1 34 16 28 32 -4 10 -2 14 5 9 6 -3 15 1 20 10 5 9 13 15 17 15 5
-1 10 5 11 12 3 22 -25 16 -45 -9z m35 4 c4 -6 3 -8 -4 -4 -6 3 -15 -2 -21
-11 -6 -10 -11 -13 -11 -7 0 9 19 34 26 34 2 0 6 -5 10 -12z m-81 -67 c-9 -8
-36 -10 -30 -2 2 4 11 8 20 8 8 0 13 -3 10 -6z"/>
<path d="M6843 1957 c0 -8 6 -14 14 -14 9 0 10 4 2 14 -6 7 -12 13 -14 13 -1
0 -2 -6 -2 -13z"/>
<path d="M6814 1933 c2 -10 6 -17 10 -16 15 3 16 11 2 22 -12 10 -14 9 -12 -6z"/>
</g>
</svg>
